<svg class="icon" viewBox="0 0 1024 1024" xmlns="http://www.w3.org/2000/svg"  width="200" height="200"><path d="M883.6 836.4l51.1-51.1c16-16 16-42.1 0-58.1s-42.1-16-58.1 0l-51.1 51.1-51.1-51.1c-16-16-42.1-16-58.1 0s-16 42.1 0 58.1l51.1 51.1-51.1 51.1c-16 16-16 42.1 0 58.1s42.1 16 58.1 0l51.1-51.1 51.1 51.1c16 16 42.1 16 58.1 0s16-42.1 0-58.1l-51.1-51.1zM717.5 650.4c0-17.2-10.5-31.9-25.4-38.2-17.3-10.8-35.6-20.5-54.7-28.9 78.3-54.1 124.6-141.8 124.2-235.2 2.9-100.9-50.8-195.3-140.2-246.6-89.4-51.3-200.3-51.3-289.6 0-89.4 51.3-143 145.7-140.2 246.6-0.4 93.5 46 181.3 124.4 235.2C184 641.1 92.2 761.3 73.5 901c-1.4 4.2-2.1 8.6-2.2 13l0.2 3.2 0.2 0.4c-0.5 14.4 7.1 28 19.9 35.3 12.8 7.4 28.6 7.4 41.4 0 12.8-7.4 20.4-20.9 19.9-35.3l-0.2-0.4h0.9C171 762.7 299.9 642.6 459.4 632.3c5.7 0.4 11.4 0.6 17.1 0.6 5.9 0 11.6-0.2 17.3-0.6C551 636.1 604 653.7 649.4 682c7.2 6.1 16.5 9.8 26.8 9.8 22.8 0 41.3-18.5 41.3-41.4z m-222.1-99.6c-6.1-0.2-12.3-0.4-18.4-0.4-6.1 0-12.5 0.2-18.6 0.4-106.2-10.9-186.4-98.6-185.2-202.4 2.9-106.3 91.6-191.4 200.9-192.8 109.3-1.4 200.2 81.5 205.9 187.7 5.7 106.1-75.8 197.8-184.6 207.5z" ></path></svg>