<svg class="icon" viewBox="0 0 1024 1024" xmlns="http://www.w3.org/2000/svg"  width="200" height="200"><path d="M1001.6 576h-211.2c-12.8 3.2-22.4-3.2-25.6-16l-32-102.4L633.6 928s-3.2 25.6-16 25.6h-35.2c-9.6 3.2-22.4-3.2-25.6-16l-124.8-611.2L339.2 768c-3.2 9.6-16 19.2-25.6 16h-32c-12.8 3.2-22.4-3.2-25.6-16l-64-195.2H22.4c-12.8 3.2-22.4-6.4-22.4-16V512c0-12.8 9.6-22.4 22.4-22.4h211.2c12.8 0 22.4 0 25.6 12.8l32 102.4 92.8-480s3.2-16 19.2-16H448c9.6-3.2 22.4 3.2 25.6 16l121.6 604.8 89.6-435.2c3.2-9.6 12.8-19.2 22.4-16h35.2c12.8-3.2 22.4 3.2 25.6 16l60.8 198.4h169.6c12.8 0 22.4 9.6 22.4 22.4v41.6c3.2 9.6-6.4 19.2-19.2 19.2z" fill="" ></path></svg>