<svg t="1683639163378" class="icon" viewBox="0 0 1024 1024" version="1.1" xmlns="http://www.w3.org/2000/svg" p-id="3730" width="200" height="200"><path d="M983.692462 642.006807l-74.844613-63.989288c3.542264-21.710651 5.370529-43.878369 5.37053-66.046086s-1.828265-44.335435-5.37053-66.046086l74.844613-63.989287a36.599587 36.599587 0 0 0 10.626793-40.221838l-1.0284-2.970931a507.046544 507.046544 0 0 0-91.070468-157.573621l-2.056798-2.399598a36.702427 36.702427 0 0 0-40.107572-10.855326l-92.898733 33.023043c-34.279975-28.10958-72.559281-50.277297-113.923785-65.817552l-17.939854-97.126598a36.62244 36.62244 0 0 0-29.480779-29.366512l-3.085198-0.571333c-59.532891-10.741059-122.150979-10.741059-181.68387 0l-3.085197 0.571333a36.62244 36.62244 0 0 0-29.480779 29.366512l-18.054121 97.583664a402.058405 402.058405 0 0 0-113.123919 65.58902l-93.584333-33.251577a36.565307 36.565307 0 0 0-40.107571 10.855326l-2.056798 2.399598a509.651822 509.651822 0 0 0-91.070468 157.573621l-1.0284 2.970931c-5.141996 14.283323-0.914133 30.280645 10.626793 40.221838l75.758745 64.674887c-3.542264 21.482118-5.256263 43.421302-5.256263 65.24622 0 21.939184 1.713999 43.878369 5.256263 65.24622L40.079005 641.778274a36.599587 36.599587 0 0 0-10.626793 40.221838l1.0284 2.970931c20.682252 57.590359 51.305697 110.724321 91.070468 157.57362l2.056798 2.399599a36.702427 36.702427 0 0 0 40.107571 10.855325l93.584333-33.251576c34.051442 27.995313 72.102215 50.163031 113.123919 65.58902l18.054121 97.583663a36.62244 36.62244 0 0 0 29.480779 29.366512l3.085197 0.571333a513.514032 513.514032 0 0 0 181.68387 0l3.085198-0.571333a36.62244 36.62244 0 0 0 29.480779-29.366512l17.939854-97.126597a399.933047 399.933047 0 0 0 113.923785-65.817553l92.898733 33.023043a36.565307 36.565307 0 0 0 40.107572-10.855325l2.056798-2.399599c39.764772-46.963566 70.388216-99.983262 91.070468-157.57362l1.0284-2.970931c5.141996-14.05479 0.914133-30.052112-10.626793-39.993305zM827.718574 459.408804c2.856665 17.254254 4.34213 34.965575 4.34213 52.676896s-1.485466 35.422641-4.34213 52.676896l-7.541595 45.8209 85.357139 73.016348a422.820644 422.820644 0 0 1-48.677565 84.100206L750.817162 730.106344l-35.879707 29.480779c-27.309714 22.396251-57.704625 39.993305-90.613402 52.334096l-43.535569 16.340121-20.453719 110.838587a431.356358 431.356358 0 0 1-97.126597 0l-20.453718-111.06712-43.192769-16.568655c-32.565977-12.340791-62.846622-29.937845-89.927803-52.219829l-35.879707-29.595046-106.724991 37.936507c-19.425319-26.167048-35.651174-54.390894-48.677565-84.100207l86.271272-73.701947-7.427328-45.706634c-2.742398-17.025721-4.227864-34.622775-4.227864-51.991296 0-17.482787 1.371199-34.965575 4.227864-51.991296l7.427328-45.706634-86.271272-73.701947c12.912124-29.823579 29.252246-57.933159 48.677565-84.100207l106.724991 37.936506 35.879707-29.595045c27.081181-22.281984 57.361826-39.879038 89.927803-52.219829l43.307035-16.340122 20.453719-111.06712c32.10891-3.656531 64.90342-3.656531 97.126597 0l20.453719 110.838587 43.535568 16.340122c32.79451 12.340791 63.303688 29.937845 90.613402 52.334095l35.879708 29.480779 106.039391-37.593706c19.425319 26.167048 35.651174 54.390894 48.677565 84.100206L820.291246 413.816437l7.427328 45.592367zM512 299.549852c-111.06712 0-201.109189 90.042069-201.109189 201.109189s90.042069 201.109189 201.109189 201.10919 201.109189-90.042069 201.109189-201.10919-90.042069-201.109189-201.109189-201.109189z m90.499135 291.608325A127.521509 127.521509 0 0 1 512 628.637616c-34.165709 0-66.274619-13.36919-90.499135-37.479439A127.521509 127.521509 0 0 1 384.021425 500.659041c0-34.165709 13.36919-66.274619 37.47944-90.499135C445.725381 385.93539 477.834291 372.680466 512 372.680466c34.165709 0 66.274619 13.254924 90.499135 37.47944A127.521509 127.521509 0 0 1 639.978575 500.659041c0 34.165709-13.36919 66.274619-37.47944 90.499136z" p-id="3731"></path></svg>