<svg t="1684824691122" class="icon" viewBox="0 0 1024 1024" version="1.1" xmlns="http://www.w3.org/2000/svg" p-id="11555" width="200" height="200"><path d="M768.213333 621.269333a201.130667 201.130667 0 0 0-86.485333 12.928c-43.605333-22.4-94.336-33.621333-152.234667-33.621333-82.048 0-149.76 22.485333-203.093333 67.498667-53.290667 45.013333-92.757333 113.578667-118.357333 205.653333-3.456 11.776-10.752 19.2-21.802667 22.314667a26.496 26.496 0 0 1-28.586667-8.277334 28.501333 28.501333 0 0 1-6.741333-29.610666c49.152-173.781333 144.384-276.266667 285.610667-307.413334-47.786667-22.869333-82.901333-56.96-105.386667-102.314666-22.528-45.354667-28.586667-93.994667-18.218667-145.92 12.458667-51.968 38.442667-93.653333 77.909334-125.184 39.466667-31.488 85.504-47.957333 138.154666-49.322667 53.333333 1.365333 99.712 17.834667 139.178667 49.322667 39.466667 31.530667 65.408 73.216 77.866667 125.184 10.410667 51.925333 4.352 100.565333-18.176 145.92-22.485333 45.354667-57.984 79.445333-106.453334 102.314666 56.234667 12.330667 105.130667 35.84 146.773334 70.528z m-239.232-108.970666c46.378667-1.408 84.821333-17.322667 115.285334-47.786667 30.464-30.464 46.378667-68.906667 47.786666-115.285333-1.408-45.696-17.322667-83.797333-47.786666-114.261334-30.464-30.464-68.906667-46.378667-115.285334-47.786666-45.696 1.408-83.797333 17.322667-114.261333 47.786666-30.464 30.464-46.378667 68.565333-47.786667 114.261334 1.408 46.378667 17.322667 84.821333 47.786667 115.285333 30.464 30.464 68.565333 46.378667 114.261333 47.786667z" fill="" p-id="11556"></path><path d="M757.333333 941.226667c-84.053333 0-152.32-66.816-152.32-149.333334 0-82.432 68.266667-149.333333 152.32-149.333333 84.181333 0 152.32 66.901333 152.32 149.333333 0 82.517333-68.138667 149.333333-152.32 149.333334z m30.890667-208.341334l-31.573333 57.642667-27.818667-57.898667a23.722667 23.722667 0 0 0-42.752 20.48l47.786667 99.541334c8.32 17.408 32.853333 18.090667 42.112 1.152l53.802666-98.133334a23.722667 23.722667 0 1 0-41.557333-22.784z" fill="" p-id="11557"></path></svg>